<?xml version="1.0" standalone="no"?>
<!DOCTYPE svg PUBLIC "-//W3C//DTD SVG 20010904//EN"
 "http://www.w3.org/TR/2001/REC-SVG-20010904/DTD/svg10.dtd">
<svg version="1.0" xmlns="http://www.w3.org/2000/svg"
 width="1598.000000pt" height="1594.000000pt" viewBox="0 0 1598.000000 1594.000000"
 preserveAspectRatio="xMidYMid meet">

<g transform="translate(0.000000,1594.000000) scale(0.100000,-0.100000)"
fill="#000000" stroke="none">
<path d="M7770 15544 c-558 -31 -1009 -98 -1489 -219 -937 -236 -1830 -662
-2606 -1244 -1123 -842 -1992 -1997 -2482 -3301 -717 -1905 -614 -4038 282
-5849 370 -748 819 -1376 1405 -1962 1421 -1423 3338 -2196 5345 -2156 426 9
753 40 1160 112 1505 266 2897 1005 3975 2111 1605 1647 2343 3922 2014 6214
-370 2586 -2126 4808 -4565 5778 -679 271 -1353 429 -2119 497 -165 15 -771
27 -920 19z m605 -274 c1264 -57 2411 -411 3473 -1074 626 -390 1210 -901
1702 -1491 206 -246 477 -630 642 -910 821 -1391 1142 -3007 917 -4615 -280
-2012 -1434 -3824 -3149 -4945 -896 -586 -1886 -951 -2965 -1094 -522 -69
-1146 -75 -1690 -15 -1940 211 -3710 1223 -4897 2800 -568 753 -996 1663
-1218 2588 -134 559 -193 1068 -193 1666 0 495 35 883 124 1345 389 2037 1671
3815 3489 4842 1138 643 2465 961 3765 903z"/>
<path d="M7685 14969 c-1429 -85 -2797 -619 -3900 -1524 -332 -272 -686 -626
-957 -957 -998 -1217 -1538 -2730 -1538 -4308 0 -1647 579 -3199 1664 -4460
113 -131 404 -429 551 -564 339 -310 717 -589 1132 -837 193 -115 644 -341
845 -424 1070 -438 2210 -600 3353 -474 2574 282 4767 2014 5651 4462 186 516
310 1077 371 1677 25 251 25 989 0 1240 -120 1190 -495 2235 -1145 3195 -1126
1663 -2938 2748 -4927 2949 -343 35 -772 45 -1100 25z m-361 -837 c72 -26 143
-80 262 -197 110 -109 149 -170 141 -221 -6 -38 26 -118 72 -180 20 -28 21
-34 10 -77 -8 -35 -9 -58 0 -91 14 -58 14 -207 -1 -294 -11 -68 -11 -69 16
-105 29 -38 53 -46 74 -25 20 20 36 -5 25 -39 -13 -39 -45 -53 -94 -42 -22 5
-45 7 -51 3 -16 -10 1 -75 33 -125 33 -51 36 -86 14 -134 -26 -53 -65 -82
-160 -119 -86 -33 -90 -36 -87 -63 2 -15 10 -38 18 -51 16 -25 180 -110 270
-141 149 -50 388 -113 512 -136 237 -43 367 -97 442 -182 21 -25 74 -112 116
-195 42 -82 87 -162 100 -177 13 -15 76 -63 141 -106 170 -114 217 -165 357
-399 l118 -198 57 6 c158 17 347 27 641 32 242 5 332 10 352 20 37 19 63 55
83 116 21 64 34 83 153 225 93 112 94 113 82 147 -16 49 -4 79 52 132 45 42
53 46 86 41 79 -10 145 -55 165 -111 2 -5 20 -3 40 5 l37 13 51 -49 c74 -72
109 -123 109 -159 0 -38 -35 -205 -56 -268 -17 -54 -71 -109 -188 -197 -68
-52 -225 -129 -286 -141 -17 -4 -31 -19 -47 -52 -24 -50 -63 -78 -109 -78 -28
0 -300 -133 -369 -180 -83 -57 -223 -137 -293 -168 -112 -50 -505 -122 -573
-105 -13 3 -82 49 -154 103 -71 53 -152 112 -180 130 -194 130 -320 242 -477
422 l-123 141 -8 -44 c-10 -57 -30 -136 -58 -229 -22 -72 -23 -92 -27 -489 -3
-408 -3 -413 18 -436 17 -18 24 -50 41 -191 35 -296 59 -468 70 -504 21 -64
61 -134 154 -270 174 -254 332 -549 394 -735 47 -141 95 -323 180 -685 70
-293 86 -349 132 -449 61 -134 73 -208 58 -364 -11 -126 -22 -167 -66 -247
-35 -65 -36 -65 -30 -165 4 -77 2 -106 -10 -128 -12 -24 -13 -34 -3 -52 9 -17
8 -54 -5 -166 -33 -298 -49 -365 -150 -649 -40 -113 -80 -239 -89 -280 -35
-165 -59 -384 -58 -535 0 -123 -3 -153 -16 -168 -12 -14 -13 -22 -4 -43 16
-33 15 -73 -3 -104 -25 -44 -18 -77 35 -155 28 -41 55 -75 61 -75 6 0 61 -51
122 -113 94 -94 128 -121 207 -164 52 -28 131 -64 175 -78 97 -33 205 -88 235
-120 47 -50 21 -102 -74 -148 -142 -70 -212 -64 -538 48 -268 92 -476 126
-636 105 -158 -21 -288 -2 -390 56 -54 32 -102 120 -102 190 0 67 76 240 144
330 76 100 85 121 101 241 8 60 26 140 39 178 42 118 56 231 56 442 0 194 -14
444 -30 563 -6 36 -15 160 -21 275 -13 228 -9 262 35 327 13 19 38 79 56 132
26 79 31 106 25 143 -6 40 -3 49 23 82 40 50 47 65 70 158 24 95 21 112 -25
173 -19 25 -102 133 -184 240 -81 107 -179 233 -218 280 -104 126 -225 286
-344 456 -59 82 -139 185 -179 229 -40 43 -123 142 -184 219 -95 122 -114 141
-142 144 -25 3 -38 -4 -73 -40 -23 -24 -56 -72 -72 -108 -45 -99 -135 -351
-167 -471 -17 -60 -50 -177 -75 -261 -40 -132 -48 -176 -60 -318 -21 -235 -43
-375 -72 -455 -64 -175 -73 -202 -73 -235 0 -64 -29 -199 -55 -262 -14 -35
-55 -134 -91 -221 -35 -87 -77 -175 -93 -194 l-30 -36 20 -25 c14 -18 19 -40
19 -84 0 -89 -37 -316 -77 -468 -88 -339 -113 -471 -129 -685 -3 -49 -15 -114
-25 -144 -15 -43 -16 -58 -7 -75 8 -13 11 -55 9 -111 -2 -80 0 -95 24 -146
l27 -56 -27 -114 c-21 -87 -29 -153 -35 -276 -9 -203 -24 -242 -104 -279 -63
-29 -183 -48 -257 -41 -64 6 -128 35 -217 101 -76 56 -112 121 -112 201 0 58
16 94 68 147 48 49 143 201 162 257 13 40 12 53 -8 150 -26 126 -27 166 -6
216 13 33 14 57 5 179 -6 78 -15 202 -21 276 -5 74 -24 218 -42 320 -27 158
-32 210 -32 355 -1 143 3 187 22 275 34 151 50 186 83 182 4 -1 10 24 14 56 4
33 21 87 42 130 34 70 36 76 28 145 -9 88 -9 77 5 160 11 61 9 78 -10 159 -18
71 -21 103 -15 151 4 34 9 129 10 210 4 145 24 591 46 972 20 360 72 792 119
990 40 166 109 369 169 499 28 59 51 116 51 127 0 10 -7 33 -16 52 -15 32 -15
36 5 75 l21 41 -53 -24 c-102 -48 -171 -25 -288 95 -103 106 -122 147 -158
355 -20 108 -47 218 -75 303 -75 223 -80 254 -72 491 7 203 7 207 -19 296 -43
147 -58 271 -51 425 8 202 26 280 82 363 68 99 119 138 279 209 l140 63 180
175 c99 97 202 193 228 215 26 21 59 57 73 81 25 42 25 43 14 173 -6 72 -13
137 -16 144 -3 8 -34 35 -70 62 -61 44 -69 55 -120 159 -30 61 -68 134 -84
162 -43 74 -61 153 -61 271 1 240 56 365 222 498 41 32 101 85 134 116 71 66
106 86 189 105 92 20 284 13 360 -14z"/>
</g>
</svg>
