<?xml version="1.0" standalone="no"?>
<!DOCTYPE svg PUBLIC "-//W3C//DTD SVG 20010904//EN"
 "http://www.w3.org/TR/2001/REC-SVG-20010904/DTD/svg10.dtd">
<svg version="1.0" xmlns="http://www.w3.org/2000/svg"
 width="1992.000000pt" height="602.000000pt" viewBox="0 0 1992.000000 602.000000"
 preserveAspectRatio="xMidYMid meet">

<g transform="translate(0.000000,602.000000) scale(0.100000,-0.100000)"
fill="#000000" stroke="none">
<path d="M770 5387 l0 -623 -380 -378 -380 -378 0 -989 0 -988 380 -390 380
-390 0 -626 0 -625 9190 0 9190 0 0 623 0 622 385 395 384 395 1 986 0 986
-385 378 -385 377 0 624 0 624 -9190 0 -9190 0 0 -623z m18170 -190 l0 -572
375 -375 375 -375 -1 -880 0 -880 -252 -239 c-139 -132 -307 -293 -374 -359
l-123 -119 0 -574 0 -574 -8980 0 -8980 0 0 578 0 578 -375 358 -375 358 0
877 0 877 375 368 375 368 0 579 0 579 8980 0 8980 0 0 -573z"/>
<path d="M1220 5022 l0 -497 -365 -365 -365 -365 0 -783 0 -784 365 -370 365
-370 0 -494 0 -494 8740 0 8740 0 0 494 0 495 365 369 365 370 0 783 0 784
-365 365 -365 365 0 497 0 498 -8740 0 -8740 0 0 -498z m10918 -761 c267 -57
480 -173 647 -353 118 -128 129 -92 -95 -309 l-195 -188 -24 32 c-48 64 -160
167 -228 211 -39 25 -106 58 -149 73 -74 26 -89 28 -244 28 -155 0 -170 -2
-245 -28 -325 -115 -509 -420 -492 -817 16 -380 229 -654 565 -731 72 -16 277
-13 363 6 41 9 117 37 168 62 83 40 108 58 200 149 57 57 106 104 109 104 3 0
231 -206 371 -336 18 -16 4 -38 -81 -129 -183 -196 -479 -351 -762 -400 -116
-20 -356 -20 -472 0 -273 47 -506 166 -690 351 -178 179 -288 387 -346 657
-32 148 -32 447 0 593 91 420 319 728 672 908 150 77 257 110 455 140 75 11
382 -3 473 -23z m-8184 -41 c143 -14 217 -35 345 -97 102 -49 125 -65 202
-142 73 -73 94 -102 132 -181 72 -149 82 -197 82 -400 0 -156 -3 -183 -23
-250 -86 -272 -284 -458 -577 -541 -72 -20 -107 -23 -362 -27 l-283 -4 -2
-446 -3 -447 -280 0 -280 0 -3 1260 c-1 693 0 1266 3 1273 6 15 893 17 1049 2z
m1779 -822 c4 -909 2 -890 63 -1009 52 -103 151 -180 269 -208 64 -16 246 -16
310 -1 119 29 217 106 270 210 59 116 58 111 62 1013 l4 827 290 0 289 0 0
-837 c0 -686 -3 -856 -15 -936 -52 -346 -255 -614 -566 -748 -367 -159 -854
-118 -1152 95 -86 60 -206 189 -255 272 -54 91 -100 208 -125 319 -20 86 -21
124 -24 949 -2 472 -2 865 1 872 4 11 60 14 290 14 l285 0 4 -832z m3193 8
l549 -824 5 822 5 821 283 3 282 2 0 -1275 0 -1275 -262 2 -263 3 -560 835
-560 834 -3 -837 -2 -837 -285 0 -285 0 0 1275 0 1275 273 0 274 0 549 -824z
m4922 332 l2 -488 550 0 550 0 0 490 0 490 288 -2 287 -3 0 -1270 0 -1270
-287 -3 -288 -2 0 525 0 525 -550 0 -550 0 -2 -522 -3 -523 -287 -3 -288 -2 0
1275 0 1275 288 -2 287 -3 3 -487z m3172 390 l-1 -83 -254 -170 c-140 -93
-254 -173 -255 -177 0 -5 115 -8 255 -8 l255 0 0 -85 0 -85 -395 0 -395 0 0
85 0 85 258 172 257 173 -257 3 -258 2 0 85 0 85 395 0 395 0 0 -82z m0 -1193
l0 -285 -395 0 -395 0 0 270 0 270 80 0 80 0 0 -180 0 -180 75 0 75 0 0 140 0
140 75 0 75 0 0 -140 0 -140 90 0 90 0 0 195 0 195 75 0 75 0 0 -285z m-630
-695 l0 -130 315 0 315 0 0 -85 0 -85 -315 0 -315 0 0 -130 0 -130 -80 0 -80
0 0 345 0 345 80 0 80 0 0 -130z"/>
<path d="M3470 3401 l0 -361 179 0 c98 0 202 5 231 10 112 21 189 82 239 189
23 49 26 68 25 156 -1 143 -39 227 -132 296 -75 55 -109 62 -334 67 l-208 4 0
-361z"/>
</g>
</svg>
